<svg width="336" height="344" viewBox="0 0 336 344" fill="none" xmlns="http://www.w3.org/2000/svg">
<path d="M228.618 93.1449L211.507 109.47C221.3 119.98 227.286 134.045 227.286 149.5C227.286 163.25 222.548 175.9 214.606 185.926L231.937 202.11C243.843 187.83 251 169.496 251 149.5C251 127.71 242.501 107.893 228.618 93.1449Z" fill="#7E7EF7" fill-opacity="0.25"/>
<path d="M143.814 70.5574C109.772 80.8484 85 112.299 85 149.5C85 189.586 113.763 222.994 151.893 230.448C157.234 231.453 162.757 231.97 168.463 231.999C193.998 231.86 216.804 220.26 231.937 202.11L214.606 185.925C203.751 199.629 186.909 208.429 168 208.429C135.257 208.429 108.714 182.045 108.714 149.5C108.714 116.955 135.257 90.5714 168 90.5714C185.194 90.5714 200.678 97.8468 211.507 109.469L228.618 93.1447C213.57 77.16 192.198 67.1312 168.467 67.0013C159.832 67.045 151.615 68.2304 143.814 70.5574Z" fill="#7E7EF7"/>
<path fill-rule="evenodd" clip-rule="evenodd" d="M121 44C121 19.6995 142.043 0 168 0C193.957 0 215 19.6995 215 44V88H191.5V44C191.5 31.8497 180.979 22 168 22C155.021 22 144.5 31.8497 144.5 44V88H121V44Z" fill="#7E7EF7"/>
</svg>
